<svg xmlns="http://www.w3.org/2000/svg" xmlns:xlink="http://www.w3.org/1999/xlink" width="84" height="115" viewBox="0 0 84 115">
  <defs>
    <clipPath id="clip-path">
      <rect id="Rectángulo_454844" data-name="Rectángulo 454844" width="58.2" height="51.636" fill="#fff"/>
    </clipPath>
  </defs>
  <g id="Grupo_1178252" data-name="Grupo 1178252" transform="translate(-706 -1921)">
    <rect id="Rectángulo_402006" data-name="Rectángulo 402006" width="84" height="115" rx="5" transform="translate(706 1921)" fill="#ae0d20"/>
    <g id="Grupo_1177271" data-name="Grupo 1177271" transform="translate(718 1956)">
      <g id="Grupo_1177270" data-name="Grupo 1177270" clip-path="url(#clip-path)">
        <path id="Trazado_993382" data-name="Trazado 993382" d="M12.956,10.83C6.521,10.83.007,8.97.007,5.415S6.521,0,12.956,0,25.9,1.86,25.9,5.415,19.39,10.83,12.956,10.83m0-8.617C6.01,2.213,2.22,4.328,2.22,5.415s3.789,3.2,10.735,3.2S23.691,6.5,23.691,5.415s-3.79-3.2-10.736-3.2" transform="translate(-0.006)" fill="#fff"/>
        <path id="Trazado_993383" data-name="Trazado 993383" d="M12.95,71.206C6.515,71.206,0,69.346,0,65.791V57.174a1.107,1.107,0,1,1,2.213,0c0,1.087,3.789,3.2,10.737,3.2s10.736-2.116,10.736-3.2a1.107,1.107,0,1,1,2.213,0v8.618c0,3.555-6.514,5.415-12.949,5.415M2.213,60.34v5.452c0,1.087,3.789,3.2,10.737,3.2s10.736-2.115,10.736-3.2V60.34c-4.907,2.972-16.567,2.968-21.472,0" transform="translate(0 -47.45)" fill="#fff"/>
        <path id="Trazado_993384" data-name="Trazado 993384" d="M12.95,155.313C6.515,155.313,0,153.453,0,149.9v-8.618a1.107,1.107,0,1,1,2.213,0c0,1.087,3.789,3.2,10.737,3.2s10.736-2.115,10.736-3.2a1.107,1.107,0,1,1,2.213,0V149.9c0,3.555-6.514,5.415-12.949,5.415M2.213,144.446V149.9c0,1.087,3.789,3.2,10.737,3.2s10.736-2.115,10.736-3.2v-5.453c-4.907,2.972-16.567,2.97-21.472,0" transform="translate(0 -118.632)" fill="#fff"/>
        <path id="Trazado_993385" data-name="Trazado 993385" d="M223.136,10.83c-6.435,0-12.95-1.86-12.95-5.415S216.7,0,223.136,0s12.949,1.86,12.949,5.415-6.514,5.415-12.949,5.415m0-8.617c-6.947,0-10.737,2.115-10.737,3.2s3.789,3.2,10.737,3.2,10.735-2.115,10.735-3.2-3.789-3.2-10.735-3.2" transform="translate(-177.884)" fill="#fff"/>
        <path id="Trazado_993386" data-name="Trazado 993386" d="M223.135,71.206c-6.435,0-12.95-1.86-12.95-5.415V57.174a1.107,1.107,0,1,1,2.213,0c0,1.087,3.79,3.2,10.737,3.2s10.735-2.116,10.735-3.2a1.107,1.107,0,1,1,2.213,0v8.618c0,3.555-6.514,5.415-12.948,5.415M212.4,60.34v5.452c0,1.087,3.79,3.2,10.737,3.2s10.735-2.115,10.735-3.2V60.34c-4.907,2.972-16.568,2.968-21.472,0" transform="translate(-177.883 -47.45)" fill="#fff"/>
        <path id="Trazado_993387" data-name="Trazado 993387" d="M223.135,155.313c-6.435,0-12.95-1.86-12.95-5.415v-8.618a1.107,1.107,0,1,1,2.213,0c0,1.087,3.79,3.2,10.737,3.2s10.735-2.115,10.735-3.2a1.107,1.107,0,1,1,2.213,0V149.9c0,3.555-6.514,5.415-12.948,5.415M212.4,144.446V149.9c0,1.087,3.79,3.2,10.737,3.2s10.735-2.115,10.735-3.2v-5.453c-4.907,2.972-16.568,2.97-21.472,0" transform="translate(-177.883 -118.632)" fill="#fff"/>
        <path id="Trazado_993388" data-name="Trazado 993388" d="M159.307,275.9a5.456,5.456,0,1,1,5.457-5.456,5.462,5.462,0,0,1-5.457,5.456m0-8.7a3.243,3.243,0,1,0,3.244,3.244,3.247,3.247,0,0,0-3.244-3.244" transform="translate(-130.207 -224.262)" fill="#fff"/>
        <path id="Trazado_993389" data-name="Trazado 993389" d="M78.169,227.6a1.106,1.106,0,0,1-1.107-1.107V225.39a1.107,1.107,0,1,1,2.213,0V226.5a1.106,1.106,0,0,1-1.107,1.107" transform="translate(-65.219 -189.815)" fill="#fff"/>
        <path id="Trazado_993390" data-name="Trazado 993390" d="M78.169,257.219a1.106,1.106,0,0,1-1.107-1.107v-1.678a1.107,1.107,0,1,1,2.213,0v1.678a1.106,1.106,0,0,1-1.107,1.107" transform="translate(-65.219 -214.396)" fill="#fff"/>
        <path id="Trazado_993391" data-name="Trazado 993391" d="M79.275,289.414H78.169a1.106,1.106,0,0,1-1.107-1.107V287.2a1.107,1.107,0,0,1,2.213,0,1.107,1.107,0,0,1,0,2.213" transform="translate(-65.219 -242.126)" fill="#fff"/>
        <path id="Trazado_993392" data-name="Trazado 993392" d="M112.24,295.507h-1.918a1.107,1.107,0,1,1,0-2.213h1.918a1.107,1.107,0,1,1,0,2.213" transform="translate(-92.431 -248.22)" fill="#fff"/>
        <path id="Trazado_993393" data-name="Trazado 993393" d="M148.864,295.507h-1.107a1.107,1.107,0,1,1,0-2.213h1.107a1.107,1.107,0,1,1,0,2.213" transform="translate(-124.113 -248.22)" fill="#fff"/>
        <path id="Trazado_993394" data-name="Trazado 993394" d="M288.354,227.6a1.106,1.106,0,0,1-1.107-1.107V225.39a1.107,1.107,0,1,1,2.213,0V226.5a1.106,1.106,0,0,1-1.107,1.107" transform="translate(-243.103 -189.815)" fill="#fff"/>
        <path id="Trazado_993395" data-name="Trazado 993395" d="M288.354,257.219a1.106,1.106,0,0,1-1.107-1.107v-1.678a1.107,1.107,0,1,1,2.213,0v1.678a1.106,1.106,0,0,1-1.107,1.107" transform="translate(-243.103 -214.396)" fill="#fff"/>
        <path id="Trazado_993396" data-name="Trazado 993396" d="M282.261,289.414h-1.107a1.75,1.75,0,1,1,2.213-2.213v1.107a1.106,1.106,0,0,1-1.107,1.107" transform="translate(-237.01 -242.126)" fill="#fff"/>
        <path id="Trazado_993397" data-name="Trazado 993397" d="M245.631,295.507h-1.918a1.107,1.107,0,0,1,0-2.213h1.918a1.107,1.107,0,0,1,0,2.213" transform="translate(-205.323 -248.22)" fill="#fff"/>
        <path id="Trazado_993398" data-name="Trazado 993398" d="M212.673,295.507h-1.107a1.107,1.107,0,1,1,0-2.213h1.107a1.107,1.107,0,1,1,0,2.213" transform="translate(-178.116 -248.22)" fill="#fff"/>
      </g>
    </g>
  </g>
</svg>
