<svg xmlns="http://www.w3.org/2000/svg" width="84" height="110" viewBox="0 0 84 110">
  <g id="Grupo_1178253" data-name="Grupo 1178253" transform="translate(-186 -2945)">
    <rect id="Rectángulo_402006" data-name="Rectángulo 402006" width="84" height="110" rx="5" transform="translate(186 2945)" fill="#ae0d20"/>
    <g id="data-base-alt-svgrepo-com" transform="translate(200 2972.009)">
      <rect id="Rectángulo_454838" data-name="Rectángulo 454838" width="9" height="4" transform="translate(12 14)" fill="#fff"/>
      <rect id="Rectángulo_454839" data-name="Rectángulo 454839" width="9" height="4" transform="translate(12 21)" fill="#fff"/>
      <rect id="Rectángulo_454840" data-name="Rectángulo 454840" width="9" height="4" transform="translate(12 28)" fill="#fff"/>
      <rect id="Rectángulo_454841" data-name="Rectángulo 454841" width="9" height="4" transform="translate(35 14)" fill="#fff"/>
      <rect id="Rectángulo_454842" data-name="Rectángulo 454842" width="9" height="4" transform="translate(35 21)" fill="#fff"/>
      <rect id="Rectángulo_454843" data-name="Rectángulo 454843" width="9" height="4" transform="translate(35 28)" fill="#fff"/>
      <path id="Trazado_993381" data-name="Trazado 993381" d="M47.784,4H5.522A3.526,3.526,0,0,0,2,7.522V46.263a3.526,3.526,0,0,0,3.522,3.522H47.784a3.526,3.526,0,0,0,3.522-3.522V7.522A3.526,3.526,0,0,0,47.784,4ZM5.522,7.522h19.37V46.263H5.522ZM28.414,46.263V7.522h19.37V46.263Z" transform="translate(1.522 3.044)" fill="#fff"/>
      <rect id="_Transparent_Rectangle_" data-name="&lt;Transparent Rectangle&gt;" width="56" height="56" fill="none"/>
    </g>
  </g>
</svg>
