<svg xmlns="http://www.w3.org/2000/svg" width="84" height="135.294" viewBox="0 0 84 135.294">
  <g id="Grupo_1178245" data-name="Grupo 1178245" transform="translate(-185.63 -577)">
    <rect id="Rectángulo_454554" data-name="Rectángulo 454554" width="84" height="135.294" rx="5" transform="translate(185.63 577)" fill="#673f3f"/>
    <g id="Grupo_1176968" data-name="Grupo 1176968" transform="translate(181.758 612.703)">
      <path id="Trazado_991827" data-name="Trazado 991827" d="M320.53,456.919H313.56a.932.932,0,1,0,0,1.863h6.969a.932.932,0,0,0,0-1.863Z" transform="translate(-259.759 -400.169)" fill="#fff"/>
      <path id="Trazado_991828" data-name="Trazado 991828" d="M336.562,424.854h-6.969a.932.932,0,1,0,0,1.863h6.969a.932.932,0,0,0,0-1.863Z" transform="translate(-273.8 -372.087)" fill="#fff"/>
      <path id="Trazado_991829" data-name="Trazado 991829" d="M49.029,74.008h4.978a.932.932,0,0,0,0-1.863H49.029a.932.932,0,1,0,0,1.863Z" transform="translate(-28.082 -63.185)" fill="#fff"/>
      <path id="Trazado_991830" data-name="Trazado 991830" d="M54.938,105.141a.932.932,0,0,0-.932-.932H49.029a.932.932,0,1,0,0,1.863h4.978A.931.931,0,0,0,54.938,105.141Z" transform="translate(-28.082 -91.266)" fill="#fff"/>
      <path id="Trazado_991831" data-name="Trazado 991831" d="M225.383,74.008h4.978a.932.932,0,1,0,0-1.863h-4.978a.932.932,0,1,0,0,1.863Z" transform="translate(-182.534 -63.185)" fill="#fff"/>
      <path id="Trazado_991832" data-name="Trazado 991832" d="M231.292,105.141a.932.932,0,0,0-.932-.932h-4.978a.932.932,0,0,0,0,1.863h4.978A.931.931,0,0,0,231.292,105.141Z" transform="translate(-182.533 -91.266)" fill="#fff"/>
      <path id="Trazado_991833" data-name="Trazado 991833" d="M75.368,5.251,70.39.273A.931.931,0,0,0,69.731,0H61.766a1.929,1.929,0,0,0-1.927,1.927v15.93a1.929,1.929,0,0,0,1.927,1.927h5.042v3.051a1.061,1.061,0,0,1-1.06,1.06H48.606a2.936,2.936,0,0,0-1.838-1.838V19.784H51.81a1.929,1.929,0,0,0,1.927-1.927V5.91a.931.931,0,0,0-.273-.659L48.486.273A.931.931,0,0,0,47.827,0H39.863a1.929,1.929,0,0,0-1.927,1.927v15.93a1.929,1.929,0,0,0,1.927,1.927H44.9v2.273a2.936,2.936,0,0,0-1.838,1.838H25.924a1.061,1.061,0,0,1-1.06-1.06V19.784h5.042a1.929,1.929,0,0,0,1.927-1.927V5.91a.931.931,0,0,0-.273-.659L26.583.273A.931.931,0,0,0,25.924,0H17.959a1.929,1.929,0,0,0-1.927,1.927v15.93a1.929,1.929,0,0,0,1.927,1.927H23v3.051a2.926,2.926,0,0,0,2.923,2.923H43.067A2.936,2.936,0,0,0,44.9,27.6v6.246a2.038,2.038,0,0,1-1.276-.593L41.4,31.016a3.893,3.893,0,0,0-2.771-1.148H29.906a3.923,3.923,0,0,0-3.918,3.918V59.672a3.923,3.923,0,0,0,3.918,3.918H62.6a3.914,3.914,0,0,0,3.717-2.679L73.165,40.37a1.927,1.927,0,0,0-1.828-2.537H65.684v-.064a3.923,3.923,0,0,0-3.918-3.918H49.819a.932.932,0,0,0,0,1.863H61.766a2.058,2.058,0,0,1,2.055,2.055v.064H46.768V27.6a2.936,2.936,0,0,0,1.838-1.838H65.749a2.926,2.926,0,0,0,2.923-2.923V19.784h5.042a1.929,1.929,0,0,0,1.927-1.927V5.91a.931.931,0,0,0-.273-.659ZM48.759,3.18l1.8,1.8H48.823a.064.064,0,0,1-.064-.064ZM39.8,17.857V1.927a.064.064,0,0,1,.064-.064H46.9V4.914a1.929,1.929,0,0,0,1.927,1.927h3.051V17.857a.064.064,0,0,1-.064.064H39.863a.064.064,0,0,1-.064-.064ZM26.855,3.18l1.8,1.8H26.92a.064.064,0,0,1-.064-.064ZM17.9,17.857V1.927a.064.064,0,0,1,.064-.064h7.033V4.914A1.929,1.929,0,0,0,26.92,6.841h3.051V17.857a.064.064,0,0,1-.064.064H17.959A.064.064,0,0,1,17.9,17.857Zm27.941,5.91a1.061,1.061,0,0,1,1.06,1.058v0a1.06,1.06,0,1,1-1.06-1.061ZM71.388,39.723a.058.058,0,0,1,.009.058L64.55,60.322a2.053,2.053,0,0,1-1.95,1.405H29.906a2.048,2.048,0,0,1-1.483-.636L35.088,41.1a2.053,2.053,0,0,1,1.95-1.405h34.3a.058.058,0,0,1,.052.027Zm-34.351-1.89a3.914,3.914,0,0,0-3.717,2.679L27.851,56.919V33.787a2.058,2.058,0,0,1,2.055-2.055h8.719a2.041,2.041,0,0,1,1.453.6l2.233,2.233A3.89,3.89,0,0,0,44.9,35.71v2.124ZM70.662,3.18l1.8,1.8H70.727a.064.064,0,0,1-.064-.064Zm3.051,14.741H61.766a.064.064,0,0,1-.064-.064V1.927a.064.064,0,0,1,.064-.064H68.8V4.914a1.929,1.929,0,0,0,1.927,1.927h3.051V17.857a.064.064,0,0,1-.064.064Z" transform="translate(0 -2)" fill="#fff"/>
      <path id="Trazado_991834" data-name="Trazado 991834" d="M406.716,72.145h-4.978a.932.932,0,1,0,0,1.863h4.978a.932.932,0,1,0,0-1.863Z" transform="translate(-336.985 -63.185)" fill="#fff"/>
      <path id="Trazado_991835" data-name="Trazado 991835" d="M406.716,104.209h-4.978a.932.932,0,1,0,0,1.863h4.978a.932.932,0,1,0,0-1.863Z" transform="translate(-336.985 -91.266)" fill="#fff"/>
    </g>
  </g>
</svg>
