<svg xmlns="http://www.w3.org/2000/svg" xmlns:xlink="http://www.w3.org/1999/xlink" width="84" height="91" viewBox="0 0 84 91">
  <defs>
    <clipPath id="clip-path">
      <rect id="Rectángulo_454848" data-name="Rectángulo 454848" width="41.439" height="54" fill="#fff"/>
    </clipPath>
  </defs>
  <g id="Grupo_1178255" data-name="Grupo 1178255" transform="translate(-706 -4278.822)">
    <rect id="Rectángulo_402006" data-name="Rectángulo 402006" width="84" height="91" rx="5" transform="translate(706 4278.822)" fill="#ae0d20"/>
    <g id="Grupo_1177279" data-name="Grupo 1177279" transform="translate(678.371 4188)">
      <g id="Grupo_1177278" data-name="Grupo 1177278" transform="translate(50 107)" clip-path="url(#clip-path)">
        <path id="Trazado_993443" data-name="Trazado 993443" d="M40.408,318.134H1.031A1.031,1.031,0,0,1,0,317.1v-7.787a1.031,1.031,0,0,1,1.031-1.031h15.8a1.031,1.031,0,0,1,0,2.062H2.062v5.725H39.377v-5.725H24.613a1.031,1.031,0,1,1,0-2.062H40.408a1.031,1.031,0,0,1,1.031,1.031V317.1a1.031,1.031,0,0,1-1.031,1.031" transform="translate(0 -264.134)" fill="#fff"/>
        <path id="Trazado_993444" data-name="Trazado 993444" d="M181.49,231.361H165.7a1.031,1.031,0,1,1,0-2.062h14.763v-5.725H165.7a1.031,1.031,0,1,1,0-2.062H181.49a1.031,1.031,0,0,1,1.031,1.031v7.787a1.031,1.031,0,0,1-1.031,1.031" transform="translate(-141.083 -189.788)" fill="#fff"/>
        <path id="Trazado_993445" data-name="Trazado 993445" d="M16.827,231.361H1.031A1.031,1.031,0,0,1,0,230.33v-7.787a1.031,1.031,0,0,1,1.031-1.031h15.8a1.031,1.031,0,0,1,0,2.062H2.062V229.3H16.827a1.031,1.031,0,0,1,0,2.062" transform="translate(0 -189.788)" fill="#fff"/>
        <path id="Trazado_993446" data-name="Trazado 993446" d="M40.408,144.589H24.613a1.031,1.031,0,1,1,0-2.062H39.377V136.8H2.062v5.725H16.827a1.031,1.031,0,1,1,0,2.062H1.031A1.031,1.031,0,0,1,0,143.558v-7.787a1.031,1.031,0,0,1,1.031-1.031H40.408a1.031,1.031,0,0,1,1.031,1.031v7.787a1.031,1.031,0,0,1-1.031,1.031" transform="translate(0 -115.443)" fill="#fff"/>
        <path id="Trazado_993447" data-name="Trazado 993447" d="M119.106,169.443h-7.787a1.031,1.031,0,0,1-1.031-1.031V135.771a1.031,1.031,0,0,1,1.031-1.031h7.787a1.031,1.031,0,0,1,1.031,1.031v32.641a1.031,1.031,0,0,1-1.031,1.031m-6.756-2.062h5.725V136.8H112.35Z" transform="translate(-94.493 -115.443)" fill="#fff"/>
        <path id="Trazado_993448" data-name="Trazado 993448" d="M91,17.916h0a1.031,1.031,0,0,1-.729-.3l-7.94-7.941a1.031,1.031,0,0,1,0-1.458L85.542,5A1.061,1.061,0,0,1,87,5l.7.7V1.031A1.031,1.031,0,0,1,88.732,0h4.54A1.031,1.031,0,0,1,94.3,1.031V5.706L95,5a1.031,1.031,0,0,1,1.458,0l3.21,3.21a1.031,1.031,0,0,1,0,1.458l-7.941,7.941a1.031,1.031,0,0,1-.729.3M84.519,8.944,91,15.427l6.483-6.483L95.733,7.192,94,8.924a1.031,1.031,0,0,1-1.76-.729V2.062H89.763V8.195A1.031,1.031,0,0,1,88,8.924L86.271,7.192Z" transform="translate(-70.282)" fill="#fff"/>
      </g>
    </g>
  </g>
</svg>
