<svg xmlns="http://www.w3.org/2000/svg" xmlns:xlink="http://www.w3.org/1999/xlink" width="84" height="78.562" viewBox="0 0 84 78.562">
  <defs>
    <clipPath id="clip-path">
      <rect id="Rectángulo_454850" data-name="Rectángulo 454850" width="48.563" height="50" fill="#fff"/>
    </clipPath>
  </defs>
  <g id="Grupo_1178249" data-name="Grupo 1178249" transform="translate(-186 -876.991)">
    <rect id="Rectángulo_402006" data-name="Rectángulo 402006" width="84" height="78.562" rx="5" transform="translate(186 876.991)" fill="#ae0d20"/>
    <g id="Grupo_1177282" data-name="Grupo 1177282" transform="translate(204.008 890.553)">
      <g id="Grupo_1177281" data-name="Grupo 1177281" clip-path="url(#clip-path)">
        <path id="Trazado_993455" data-name="Trazado 993455" d="M222,151.328h-3.548V148a4.767,4.767,0,1,0-9.534,0v3.326h-3.548V148A8.314,8.314,0,1,1,222,148Z" transform="translate(-175.281 -119.224)" fill="#fff"/>
        <path id="Trazado_993456" data-name="Trazado 993456" d="M220.993,213.175a10.933,10.933,0,0,1-1.474.874h1.474Z" transform="translate(-187.359 -181.945)" fill="#fff"/>
        <path id="Trazado_993457" data-name="Trazado 993457" d="M212.538,233.084H196.094a1.829,1.829,0,0,0-1.829,1.829v10.874a3.15,3.15,0,0,0,3.15,3.15h13.8a3.15,3.15,0,0,0,3.15-3.15V234.913a1.829,1.829,0,0,0-1.829-1.829m-5.9,11.78a.533.533,0,0,1-.518.657h-3.606a.533.533,0,0,1-.518-.657l.916-3.824a2.488,2.488,0,1,1,2.81,0Z" transform="translate(-165.805 -198.937)" fill="#fff"/>
        <path id="Trazado_993458" data-name="Trazado 993458" d="M26.613,46.85V44a36.419,36.419,0,0,1-7.067.663c-9.583,0-15.7-3.278-15.7-5.534V34.765c3.795,2.387,9.856,3.641,15.7,3.641a40.6,40.6,0,0,0,7.067-.626v-1.8a3.638,3.638,0,0,1,.8-2.26,35.466,35.466,0,0,1-7.866.841c-9.583,0-15.7-3.277-15.7-5.532V24.662C7.642,27.048,13.7,28.3,19.546,28.3a39.7,39.7,0,0,0,8.81-.975,10.092,10.092,0,0,1,1.822-4.493,32.377,32.377,0,0,1-10.632,1.62c-9.583,0-15.7-3.277-15.7-5.532v-3.8c3.795,2.387,9.856,3.64,15.7,3.64s11.9-1.254,15.7-3.64v3.8a1.414,1.414,0,0,1-.036.217,10.1,10.1,0,0,1,3.192-.521c.233,0,.462.02.691.035V9.381C39.092,3.289,29.021,0,19.546,0S0,3.289,0,9.381v9.541c0,.127.03.246.039.371A1.788,1.788,0,0,0,0,19.484v9.541c0,.127.03.246.039.371A1.788,1.788,0,0,0,0,29.587v9.539c0,6.093,10.071,9.382,19.546,9.382a40.75,40.75,0,0,0,7.175-.634,4.993,4.993,0,0,1-.108-1.024m-7.067-43c9.583,0,15.7,3.278,15.7,5.534s-6.116,5.532-15.7,5.532-15.7-3.276-15.7-5.532,6.116-5.534,15.7-5.534" transform="translate(0 0)" fill="#fff"/>
      </g>
    </g>
  </g>
</svg>
