<svg xmlns="http://www.w3.org/2000/svg" xmlns:xlink="http://www.w3.org/1999/xlink" width="84" height="79.317" viewBox="0 0 84 79.317">
  <defs>
    <clipPath id="clip-path">
      <rect id="Rectángulo_454846" data-name="Rectángulo 454846" width="50.105" height="50" fill="#fff"/>
    </clipPath>
  </defs>
  <g id="Grupo_1178249" data-name="Grupo 1178249" transform="translate(-706 -949.591)">
    <rect id="Rectángulo_402006" data-name="Rectángulo 402006" width="84" height="79.317" rx="5" transform="translate(706 949.591)" fill="#ae0d20"/>
    <g id="Grupo_1177275" data-name="Grupo 1177275" transform="translate(724 964)">
      <g id="Grupo_1177274" data-name="Grupo 1177274" clip-path="url(#clip-path)">
        <path id="Trazado_993411" data-name="Trazado 993411" d="M40.485,34.5H1a1,1,0,0,1-1-1V6.874a1,1,0,0,1,1-1H21.127l3.344-5.4A1,1,0,0,1,25.324,0H40.485a1,1,0,0,1,1,1V33.5a1,1,0,0,1-1,1M2.008,32.5H39.482V2.008h-13.6L22.539,7.4a1,1,0,0,1-.853.475H2.008Z" transform="translate(0 0)" fill="#fff"/>
        <path id="Trazado_993412" data-name="Trazado 993412" d="M284.2,70.136a1.026,1.026,0,0,1-.2-.019,1,1,0,0,1-.79-1.18l5.291-26.725a1,1,0,1,1,1.969.39l-5.291,26.725a1,1,0,0,1-.984.809" transform="translate(-243.718 -35.632)" fill="#fff"/>
        <path id="Trazado_993413" data-name="Trazado 993413" d="M284.2,115.055a.982.982,0,0,1-.3-.047,1,1,0,0,1-.682-1.152l3.85-19.448a1,1,0,0,1,.985-.809h4.766a1,1,0,0,1,.917,1.41l-8.616,19.448a1,1,0,0,1-.917.6m4.674-19.448L286.94,105.4l4.337-9.789Z" transform="translate(-243.718 -80.551)" fill="#fff"/>
        <path id="Trazado_993414" data-name="Trazado 993414" d="M289.5,43.408H284.2a1,1,0,1,1,0-2.008H289.5a1,1,0,1,1,0,2.008" transform="translate(-243.719 -35.628)" fill="#fff"/>
        <path id="Trazado_993415" data-name="Trazado 993415" d="M111.153,88.527a6.909,6.909,0,0,1-6.9-6.9,6.822,6.822,0,0,1,1.27-3.984V73.58a5.631,5.631,0,0,1,11.261,0v4.062a6.822,6.822,0,0,1,1.27,3.984,6.909,6.909,0,0,1-6.9,6.9m0-18.57a3.627,3.627,0,0,0-3.623,3.623v4.4a1,1,0,0,1-.216.622,4.841,4.841,0,0,0-1.054,3.027,4.893,4.893,0,1,0,9.787,0,4.843,4.843,0,0,0-1.055-3.028,1,1,0,0,1-.216-.622v-4.4a3.627,3.627,0,0,0-3.623-3.623" transform="translate(-89.718 -58.477)" fill="#fff"/>
        <path id="Trazado_993416" data-name="Trazado 993416" d="M147.556,161.379a1,1,0,0,1-1-1v-2.321a1,1,0,0,1,2.008,0v2.321a1,1,0,0,1-1,1" transform="translate(-126.121 -135.155)" fill="#fff"/>
        <path id="Trazado_993417" data-name="Trazado 993417" d="M127.933,307.01a4.183,4.183,0,1,1,4.182-4.183,4.187,4.187,0,0,1-4.182,4.183m0-6.358a2.175,2.175,0,1,0,2.175,2.175,2.177,2.177,0,0,0-2.175-2.175" transform="translate(-106.498 -257.01)" fill="#fff"/>
        <path id="Trazado_993418" data-name="Trazado 993418" d="M19.418,323.456H17.41a1,1,0,1,1,0-2.008h2.008a1,1,0,1,1,0,2.008m-5.019,0H12.391a1,1,0,1,1,0-2.008H14.4a1,1,0,1,1,0,2.008m-5.019,0H7.373a1,1,0,1,1,0-2.008H9.38a1,1,0,1,1,0,2.008m-5.019,0H2.354a1,1,0,1,1,0-2.008H4.361a1,1,0,1,1,0,2.008" transform="translate(-1.162 -276.634)" fill="#fff"/>
        <path id="Trazado_993419" data-name="Trazado 993419" d="M188.769,323.456h-2.008a1,1,0,1,1,0-2.008h2.008a1,1,0,1,1,0,2.008m-5.019,0h-2.008a1,1,0,1,1,0-2.008h2.008a1,1,0,0,1,0,2.008m-5.019,0h-2.008a1,1,0,1,1,0-2.008h2.008a1,1,0,1,1,0,2.008m-5.019,0H171.7a1,1,0,1,1,0-2.008h2.008a1,1,0,1,1,0,2.008" transform="translate(-146.903 -276.634)" fill="#fff"/>
        <path id="Trazado_993420" data-name="Trazado 993420" d="M147.556,257.279a1,1,0,0,1-1-1v-2.008a1,1,0,1,1,2.008,0v2.008a1,1,0,0,1-1,1m0-5.019a1,1,0,0,1-1-1v-2.007a1,1,0,1,1,2.008,0v2.007a1,1,0,0,1-1,1" transform="translate(-126.121 -213.637)" fill="#fff"/>
        <path id="Trazado_993421" data-name="Trazado 993421" d="M123.622,134.68h-9.253a1,1,0,1,1,0-2.008h9.253a1,1,0,1,1,0,2.008" transform="translate(-97.561 -114.176)" fill="#fff"/>
      </g>
    </g>
  </g>
</svg>
