<svg xmlns="http://www.w3.org/2000/svg" xmlns:xlink="http://www.w3.org/1999/xlink" width="84" height="139" viewBox="0 0 84 139">
  <defs>
    <clipPath id="clip-path">
      <rect id="Rectángulo_454845" data-name="Rectángulo 454845" width="43.667" height="51.754" fill="#fff"/>
    </clipPath>
  </defs>
  <g id="Grupo_1178251" data-name="Grupo 1178251" transform="translate(-186 -857)">
    <rect id="Rectángulo_402006" data-name="Rectángulo 402006" width="84" height="139" rx="5" transform="translate(186 857)" fill="#ae0d20"/>
    <g id="Grupo_1177273" data-name="Grupo 1177273" transform="translate(206.167 900.123)">
      <g id="Grupo_1177272" data-name="Grupo 1177272" clip-path="url(#clip-path)">
        <path id="Trazado_993399" data-name="Trazado 993399" d="M203.653,13.415h-9.094a1.024,1.024,0,0,1-1.024-1.024V1.024A1.024,1.024,0,0,1,194.559,0h6.665a1.023,1.023,0,0,1,.724.3l2.429,2.429a1.024,1.024,0,0,1,.3.724v8.938a1.024,1.024,0,0,1-1.024,1.024m-8.07-2.048h7.046V3.877L200.8,2.048h-5.217Z" transform="translate(-166.007)" fill="#fff"/>
        <path id="Trazado_993400" data-name="Trazado 993400" d="M106.889,13.415H97.8a1.024,1.024,0,0,1-1.024-1.024V1.024A1.024,1.024,0,0,1,97.8,0h6.665a1.023,1.023,0,0,1,.724.3l2.429,2.429a1.024,1.024,0,0,1,.3.724v8.938a1.024,1.024,0,0,1-1.024,1.024m-8.07-2.048h7.046V3.877l-1.829-1.829H98.819Z" transform="translate(-83.007)" fill="#fff"/>
        <path id="Trazado_993401" data-name="Trazado 993401" d="M10.118,13.415H1.024A1.024,1.024,0,0,1,0,12.391V1.024A1.024,1.024,0,0,1,1.024,0H7.689a1.024,1.024,0,0,1,.724.3l2.429,2.429a1.024,1.024,0,0,1,.3.724v8.938a1.024,1.024,0,0,1-1.024,1.024m-8.07-2.048H9.094V3.877L7.265,2.048H2.048Z" fill="#fff"/>
        <path id="Trazado_993402" data-name="Trazado 993402" d="M10.078,108.736H9.054a1.024,1.024,0,1,1,0-2.048h1.024a1.024,1.024,0,0,1,0,2.048" transform="translate(-6.888 -91.513)" fill="#fff"/>
        <path id="Trazado_993403" data-name="Trazado 993403" d="M63.31,108.736H61.353a1.024,1.024,0,1,1,0-2.048H63.31a1.024,1.024,0,1,1,0,2.048m-4.892,0H56.46a1.024,1.024,0,1,1,0-2.048h1.957a1.024,1.024,0,1,1,0,2.048m-4.892,0H51.568a1.024,1.024,0,1,1,0-2.048h1.957a1.024,1.024,0,1,1,0,2.048m-4.892,0H46.675a1.024,1.024,0,1,1,0-2.048h1.957a1.024,1.024,0,1,1,0,2.048m-4.893,0H41.783a1.024,1.024,0,1,1,0-2.048H43.74a1.024,1.024,0,1,1,0,2.048m-4.892,0H36.89a1.024,1.024,0,1,1,0-2.048h1.957a1.024,1.024,0,1,1,0,2.048" transform="translate(-30.765 -91.513)" fill="#fff"/>
        <path id="Trazado_993404" data-name="Trazado 993404" d="M244.3,108.736h-1.024a1.024,1.024,0,0,1,0-2.048H244.3a1.024,1.024,0,0,1,0,2.048" transform="translate(-207.792 -91.513)" fill="#fff"/>
        <path id="Trazado_993405" data-name="Trazado 993405" d="M129.759,134.121a1.024,1.024,0,0,1-1.024-1.024v-7.083a1.024,1.024,0,1,1,2.048,0V133.1a1.024,1.024,0,0,1-1.024,1.024" transform="translate(-110.424 -107.212)" fill="#fff"/>
        <path id="Trazado_993406" data-name="Trazado 993406" d="M111.617,158.7a1.021,1.021,0,0,1-.724-.3l-3.008-3.008a1.024,1.024,0,0,1,1.448-1.448l3.008,3.008a1.024,1.024,0,0,1-.724,1.748" transform="translate(-92.283 -131.786)" fill="#fff"/>
        <path id="Trazado_993407" data-name="Trazado 993407" d="M129.759,158.7a1.024,1.024,0,0,1-.724-1.748l3.008-3.008a1.024,1.024,0,0,1,1.448,1.448l-3.008,3.008a1.021,1.021,0,0,1-.724.3" transform="translate(-110.424 -131.786)" fill="#fff"/>
        <path id="Trazado_993408" data-name="Trazado 993408" d="M38.215,187.27H1.031a1.024,1.024,0,0,1-1.024-1.024V163.932a1.024,1.024,0,0,1,1.024-1.024H21.89l2.749-4.435a1.024,1.024,0,0,1,.87-.485H38.215a1.024,1.024,0,0,1,1.024,1.024v27.234a1.024,1.024,0,0,1-1.024,1.024m-36.16-2.048H37.191V160.036H26.08l-2.749,4.436a1.024,1.024,0,0,1-.87.484H2.055Z" transform="translate(-0.006 -135.516)" fill="#fff"/>
        <path id="Trazado_993409" data-name="Trazado 993409" d="M262.452,216.436a1.012,1.012,0,0,1-.2-.019,1.025,1.025,0,0,1-.806-1.2l4.433-22.4a1.025,1.025,0,0,1,2.01.4l-4.433,22.4a1.025,1.025,0,0,1-1,.825" transform="translate(-224.242 -164.682)" fill="#fff"/>
        <path id="Trazado_993410" data-name="Trazado 993410" d="M266.887,194.043h-4.434a1.024,1.024,0,1,1,0-2.048h4.434a1.024,1.024,0,0,1,0,2.048" transform="translate(-224.244 -164.686)" fill="#fff"/>
      </g>
    </g>
  </g>
</svg>
