<svg xmlns="http://www.w3.org/2000/svg" xmlns:xlink="http://www.w3.org/1999/xlink" width="84" height="115" viewBox="0 0 84 115">
  <defs>
    <clipPath id="clip-path">
      <rect id="Rectángulo_454847" data-name="Rectángulo 454847" width="59.875" height="59.875" fill="#fff"/>
    </clipPath>
  </defs>
  <g id="Grupo_1178251" data-name="Grupo 1178251" transform="translate(-602 -2398)">
    <rect id="Rectángulo_454554" data-name="Rectángulo 454554" width="84" height="115" rx="5" transform="translate(602 2398)" fill="#673f3f"/>
    <g id="Grupo_1177277" data-name="Grupo 1177277" transform="translate(614 2426.214)">
      <g id="Grupo_1177276" data-name="Grupo 1177276" clip-path="url(#clip-path)">
        <path id="Trazado_993422" data-name="Trazado 993422" d="M119.6,259.827H88.026a1.082,1.082,0,0,1-1.082-1.082v-9.072a1.082,1.082,0,0,1,1.082-1.082H119.6a1.082,1.082,0,0,1,1.082,1.082v9.072a1.082,1.082,0,0,1-1.082,1.082m-30.5-2.164h29.413v-6.908H89.108Z" transform="translate(-73.877 -211.231)" fill="#fff"/>
        <path id="Trazado_993423" data-name="Trazado 993423" d="M130.016,280.94H113.857a1.082,1.082,0,1,1,0-2.164h16.159a1.082,1.082,0,0,1,0,2.164" transform="translate(-95.826 -236.879)" fill="#fff"/>
        <path id="Trazado_993424" data-name="Trazado 993424" d="M254.191,272.456a2.9,2.9,0,1,1,2.9-2.9,2.908,2.908,0,0,1-2.9,2.9m0-3.645a.74.74,0,1,0,.74.741.741.741,0,0,0-.74-.741" transform="translate(-213.521 -226.573)" fill="#fff"/>
        <path id="Trazado_993425" data-name="Trazado 993425" d="M119.6,173.053H88.026a1.082,1.082,0,0,1-1.082-1.082V162.9a1.082,1.082,0,0,1,1.082-1.082H119.6a1.082,1.082,0,0,1,1.082,1.082v9.072a1.082,1.082,0,0,1-1.082,1.082m-30.5-2.164h29.413v-6.908H89.108Z" transform="translate(-73.877 -137.498)" fill="#fff"/>
        <path id="Trazado_993426" data-name="Trazado 993426" d="M130.016,194.167H113.857a1.082,1.082,0,1,1,0-2.164h16.159a1.082,1.082,0,0,1,0,2.164" transform="translate(-95.826 -163.147)" fill="#fff"/>
        <path id="Trazado_993427" data-name="Trazado 993427" d="M254.191,185.683a2.9,2.9,0,1,1,2.9-2.9,2.908,2.908,0,0,1-2.9,2.9m0-3.645a.74.74,0,1,0,.74.741.741.741,0,0,0-.74-.741" transform="translate(-213.521 -152.841)" fill="#fff"/>
        <path id="Trazado_993428" data-name="Trazado 993428" d="M119.6,86.281H88.026A1.082,1.082,0,0,1,86.944,85.2V76.127a1.082,1.082,0,0,1,1.082-1.082H119.6a1.082,1.082,0,0,1,1.082,1.082V85.2a1.082,1.082,0,0,1-1.082,1.082m-30.5-2.164h29.413V77.209H89.108Z" transform="translate(-73.877 -63.767)" fill="#fff"/>
        <path id="Trazado_993429" data-name="Trazado 993429" d="M130.016,107.4H113.857a1.082,1.082,0,1,1,0-2.164h16.159a1.082,1.082,0,0,1,0,2.164" transform="translate(-95.826 -89.416)" fill="#fff"/>
        <path id="Trazado_993430" data-name="Trazado 993430" d="M254.191,98.91a2.9,2.9,0,1,1,2.9-2.9,2.908,2.908,0,0,1-2.9,2.9m0-3.645a.74.74,0,1,0,.74.741.741.741,0,0,0-.74-.741" transform="translate(-213.521 -79.109)" fill="#fff"/>
        <path id="Trazado_993431" data-name="Trazado 993431" d="M179.319,7.033a3.517,3.517,0,1,1,3.517-3.517,3.521,3.521,0,0,1-3.517,3.517m0-4.869a1.353,1.353,0,1,0,1.353,1.353,1.354,1.354,0,0,0-1.353-1.353" transform="translate(-149.381)" fill="#fff"/>
        <path id="Trazado_993432" data-name="Trazado 993432" d="M179.319,358.632a3.517,3.517,0,1,1,3.517-3.517,3.521,3.521,0,0,1-3.517,3.517m0-4.869a1.353,1.353,0,1,0,1.353,1.353,1.354,1.354,0,0,0-1.353-1.353" transform="translate(-149.381 -298.757)" fill="#fff"/>
        <path id="Trazado_993433" data-name="Trazado 993433" d="M3.517,139.446a3.517,3.517,0,1,1,3.517-3.517,3.521,3.521,0,0,1-3.517,3.517m0-4.869a1.353,1.353,0,1,0,1.353,1.353,1.354,1.354,0,0,0-1.353-1.353" transform="translate(0 -112.513)" fill="#fff"/>
        <path id="Trazado_993434" data-name="Trazado 993434" d="M355.118,139.446a3.517,3.517,0,1,1,3.517-3.517,3.521,3.521,0,0,1-3.517,3.517m0-4.869a1.353,1.353,0,1,0,1.353,1.353,1.354,1.354,0,0,0-1.353-1.353" transform="translate(-298.76 -112.513)" fill="#fff"/>
        <path id="Trazado_993435" data-name="Trazado 993435" d="M3.517,226.219A3.517,3.517,0,1,1,7.033,222.7a3.521,3.521,0,0,1-3.517,3.517m0-4.869A1.353,1.353,0,1,0,4.869,222.7a1.354,1.354,0,0,0-1.353-1.353" transform="translate(0 -186.245)" fill="#fff"/>
        <path id="Trazado_993436" data-name="Trazado 993436" d="M355.118,226.219a3.517,3.517,0,1,1,3.517-3.517,3.521,3.521,0,0,1-3.517,3.517m0-4.869a1.353,1.353,0,1,0,1.353,1.353,1.354,1.354,0,0,0-1.353-1.353" transform="translate(-298.76 -186.245)" fill="#fff"/>
        <path id="Trazado_993437" data-name="Trazado 993437" d="M38.8,150.777H33.482a1.082,1.082,0,1,1,0-2.164H38.8a1.082,1.082,0,1,1,0,2.164" transform="translate(-27.531 -126.278)" fill="#fff"/>
        <path id="Trazado_993438" data-name="Trazado 993438" d="M193.084,37.857A1.082,1.082,0,0,1,192,36.775V33.483a1.082,1.082,0,1,1,2.164,0v3.292a1.082,1.082,0,0,1-1.082,1.082" transform="translate(-163.146 -27.532)" fill="#fff"/>
        <path id="Trazado_993439" data-name="Trazado 993439" d="M193.084,335.307A1.082,1.082,0,0,1,192,334.225v-3.292a1.082,1.082,0,0,1,2.164,0v3.292a1.082,1.082,0,0,1-1.082,1.082" transform="translate(-163.146 -280.278)" fill="#fff"/>
        <path id="Trazado_993440" data-name="Trazado 993440" d="M38.8,237.55H33.482a1.082,1.082,0,0,1,0-2.164H38.8a1.082,1.082,0,0,1,0,2.164" transform="translate(-27.531 -200.01)" fill="#fff"/>
        <path id="Trazado_993441" data-name="Trazado 993441" d="M322.6,150.777h-5.32a1.082,1.082,0,1,1,0-2.164h5.32a1.082,1.082,0,1,1,0,2.164" transform="translate(-268.681 -126.278)" fill="#fff"/>
        <path id="Trazado_993442" data-name="Trazado 993442" d="M322.6,237.55h-5.32a1.082,1.082,0,1,1,0-2.164h5.32a1.082,1.082,0,1,1,0,2.164" transform="translate(-268.681 -200.01)" fill="#fff"/>
      </g>
    </g>
  </g>
</svg>
