<svg xmlns="http://www.w3.org/2000/svg" width="84" height="91" viewBox="0 0 84 91">
  <g id="Grupo_1178254" data-name="Grupo 1178254" transform="translate(-706 -3394)">
    <rect id="Rectángulo_402006" data-name="Rectángulo 402006" width="84" height="91" rx="5" transform="translate(706 3394)" fill="#ae0d20"/>
    <g id="backup-cloud-data-svgrepo-com" transform="translate(723.25 3412.501)">
      <path id="Trazado_992082" data-name="Trazado 992082" d="M40.395,13.2a9.516,9.516,0,0,0-3.319.592A13.59,13.59,0,0,0,10.21,13.3,9.594,9.594,0,0,0,9.2,32.081V35.6a1.6,1.6,0,0,0,1.6,1.6h8.8v3.2H8.4v3.2H19.6v3.2H8.4V50H21.2a1.6,1.6,0,0,0,1.6-1.6V37.2h6.4V48.4A1.6,1.6,0,0,0,30.8,50h12.8V46.8H32.4V43.6h11.2V40.4H32.4V37.2h8.8a1.6,1.6,0,0,0,1.6-1.6v-3.52a9.594,9.594,0,0,0-2.4-18.881Zm-.8,20.8H12.4V24.4H39.595Zm3.2-5.271V22.8a1.6,1.6,0,0,0-1.6-1.6H10.8a1.6,1.6,0,0,0-1.6,1.6V28.73A6.4,6.4,0,0,1,11.559,16.4h.08a1.6,1.6,0,0,0,1.6-1.494A10.391,10.391,0,0,1,34,15.6c0,.209-.016.414-.03.618l-.008.114a1.6,1.6,0,0,0,2.566,1.384A6.329,6.329,0,0,1,40.395,16.4a6.4,6.4,0,0,1,2.4,12.329Z" transform="translate(-2.002 -2.002)" fill="#fff"/>
      <rect id="Rectángulo_454727" data-name="Rectángulo 454727" width="3.536" height="2.357" transform="translate(0 45.055)" fill="#fff"/>
      <rect id="Rectángulo_454728" data-name="Rectángulo 454728" width="3.536" height="3.536" transform="translate(0 37.984)" fill="#fff"/>
      <rect id="Rectángulo_454729" data-name="Rectángulo 454729" width="3.536" height="3.536" transform="translate(13.86 25.409)" fill="#fff"/>
      <rect id="Rectángulo_454730" data-name="Rectángulo 454730" width="15.321" height="3.536" transform="translate(19.496 25.409)" fill="#fff"/>
      <rect id="Rectángulo_454731" data-name="Rectángulo 454731" width="3.536" height="2.357" transform="translate(45.044 45.055)" fill="#fff"/>
      <rect id="Rectángulo_454732" data-name="Rectángulo 454732" width="3.536" height="3.536" transform="translate(45.044 37.984)" fill="#fff"/>
    </g>
  </g>
</svg>
