<svg xmlns="http://www.w3.org/2000/svg" width="95.5" height="79" viewBox="0 0 95.5 79">
  <g id="Grupo_1177499" data-name="Grupo 1177499" transform="translate(-861.333 -239)">
    <g id="Grupo_1176830" data-name="Grupo 1176830">
      <circle id="Elipse_13621" data-name="Elipse 13621" cx="38" cy="38" r="38" transform="translate(876.833 242)" fill="#5f2bd6"/>
      <g id="Elipse_13635" data-name="Elipse 13635" transform="translate(880.833 239)" fill="none" stroke="#210f4b" stroke-width="1">
        <circle cx="38" cy="38" r="38" stroke="none"/>
        <circle cx="38" cy="38" r="37.5" fill="none"/>
      </g>
    </g>
    <g id="Grupo_1176829" data-name="Grupo 1176829" transform="translate(861.333 242)">
      <path id="Trazado_991662" data-name="Trazado 991662" d="M240,352.771c0,4.239,8.345,7.675,18.638,7.675s18.638-3.436,18.638-7.675V344c0,4.239-37.276,4.239-37.276,0Z" transform="translate(-207.109 -296.856)" fill="#528fd8"/>
      <ellipse id="Elipse_13625" data-name="Elipse 13625" cx="18.465" cy="7.386" rx="18.465" ry="7.386" transform="translate(32.827 39.803)" fill="#0573ce"/>
      <path id="Trazado_991663" data-name="Trazado 991663" d="M240,256.771c0,4.239,8.345,7.674,18.638,7.674s18.638-3.436,18.638-7.674V248c0,4.239-37.276,4.239-37.276,0Z" transform="translate(-207.109 -214.013)" fill="#528fd8"/>
      <ellipse id="Elipse_13626" data-name="Elipse 13626" cx="18.465" cy="7.386" rx="18.465" ry="7.386" transform="translate(32.827 26.672)" fill="#0573ce"/>
      <path id="Trazado_991664" data-name="Trazado 991664" d="M240,160.771c0,4.239,8.345,7.675,18.638,7.675s18.638-3.436,18.638-7.675V152c0,4.239-37.276,4.239-37.276,0Z" transform="translate(-207.109 -131.169)" fill="#528fd8"/>
      <ellipse id="Elipse_13627" data-name="Elipse 13627" cx="18.465" cy="7.386" rx="18.465" ry="7.386" transform="translate(32.827 13.541)" fill="#b2caec"/>
      <path id="Trazado_991665" data-name="Trazado 991665" d="M281.825,107.377a4.523,4.523,0,0,1,1.894,3.374c0,4.239-8.345,7.675-18.638,7.675a38.516,38.516,0,0,1-11.263-1.559c3.033,2.547,9.391,4.3,16.744,4.3,10.294,0,18.638-3.436,18.638-7.675C289.2,111,286.307,108.779,281.825,107.377Z" transform="translate(-219.033 -92.661)" fill="#82aee3"/>
      <g id="Grupo_1176811" data-name="Grupo 1176811" transform="translate(36.249 29.135)">
        <path id="Trazado_991666" data-name="Trazado 991666" d="M272.106,216.7a1.041,1.041,0,0,1-.189-.018,27.313,27.313,0,0,1-6.841-2.137,1.028,1.028,0,0,1,.9-1.847,25.251,25.251,0,0,0,6.315,1.964,1.028,1.028,0,0,1-.187,2.038Z" transform="translate(-264.499 -212.593)" fill="#0573ce"/>
        <path id="Trazado_991667" data-name="Trazado 991667" d="M272.106,312.7a1.041,1.041,0,0,1-.189-.018,27.31,27.31,0,0,1-6.841-2.137,1.028,1.028,0,1,1,.9-1.847,25.254,25.254,0,0,0,6.315,1.964,1.028,1.028,0,0,1-.187,2.038Z" transform="translate(-264.499 -295.436)" fill="#0573ce"/>
        <path id="Trazado_991668" data-name="Trazado 991668" d="M272.106,408.7a1.041,1.041,0,0,1-.189-.018,27.313,27.313,0,0,1-6.841-2.137,1.028,1.028,0,0,1,.9-1.847,25.255,25.255,0,0,0,6.315,1.964,1.028,1.028,0,0,1-.187,2.038Z" transform="translate(-264.499 -378.28)" fill="#0573ce"/>
      </g>
      <g id="Grupo_1176813" data-name="Grupo 1176813" transform="translate(64.755 29.135)">
        <g id="Grupo_1176812" data-name="Grupo 1176812">
          <circle id="Elipse_13628" data-name="Elipse 13628" cx="1.028" cy="1.028" r="1.028" fill="#fe7d43"/>
        </g>
      </g>
      <g id="Grupo_1176815" data-name="Grupo 1176815" transform="translate(60.369 30.701)">
        <g id="Grupo_1176814" data-name="Grupo 1176814">
          <circle id="Elipse_13629" data-name="Elipse 13629" cx="1.028" cy="1.028" r="1.028" fill="#ffd15b"/>
        </g>
      </g>
      <g id="Grupo_1176817" data-name="Grupo 1176817" transform="translate(64.755 42.291)">
        <g id="Grupo_1176816" data-name="Grupo 1176816">
          <circle id="Elipse_13630" data-name="Elipse 13630" cx="1.028" cy="1.028" r="1.028" fill="#ffd15b"/>
        </g>
      </g>
      <g id="Grupo_1176819" data-name="Grupo 1176819" transform="translate(60.369 43.857)">
        <g id="Grupo_1176818" data-name="Grupo 1176818">
          <circle id="Elipse_13631" data-name="Elipse 13631" cx="1.028" cy="1.028" r="1.028" fill="#fe7d43"/>
        </g>
      </g>
      <g id="Grupo_1176821" data-name="Grupo 1176821" transform="translate(64.755 55.448)">
        <g id="Grupo_1176820" data-name="Grupo 1176820">
          <circle id="Elipse_13632" data-name="Elipse 13632" cx="1.028" cy="1.028" r="1.028" fill="#fe7d43"/>
        </g>
      </g>
      <g id="Grupo_1176823" data-name="Grupo 1176823" transform="translate(60.369 57.014)">
        <g id="Grupo_1176822" data-name="Grupo 1176822">
          <circle id="Elipse_13633" data-name="Elipse 13633" cx="1.028" cy="1.028" r="1.028" fill="#ffd15b"/>
        </g>
      </g>
      <path id="Trazado_991669" data-name="Trazado 991669" d="M76.455,42.785A21.916,21.916,0,1,0,68.521,38.2a2.117,2.117,0,0,1,.282,2.838L63.313,48.4l2.365,3.9,4.557.1,3.632-8.436A2.111,2.111,0,0,1,76.455,42.785Z" transform="translate(-52.892 0)" fill="#0055a3"/>
      <path id="Trazado_991670" data-name="Trazado 991670" d="M1.161,365.615a5.847,5.847,0,1,0,10.057,5.807l6.125-14.23-6.922-4Z" transform="translate(0 -304.791)" fill="#ffdc30"/>
      <circle id="Elipse_13634" data-name="Elipse 13634" cx="17.542" cy="17.542" r="17.542" transform="translate(12.778 4.386)" fill="#99e6fc"/>
      <path id="Trazado_991671" data-name="Trazado 991671" d="M174.707,36.1a17.548,17.548,0,0,1-12.513,32.548A17.545,17.545,0,1,0,174.707,36.1Z" transform="translate(-139.966 -31.153)" fill="#62dbfb"/>
      <path id="Trazado_991672" data-name="Trazado 991672" d="M157.238,82.118V99.81a2.118,2.118,0,0,0,2.118,2.118h13.306a2.118,2.118,0,0,0,2.118-2.118V92.3a8.821,8.821,0,0,0-2.193-5.5l-4.613-4.613a8.821,8.821,0,0,0-5.5-2.193h-3.124A2.118,2.118,0,0,0,157.238,82.118Z" transform="translate(-135.689 -69.036)" fill="#dff6fd"/>
      <path id="Trazado_991673" data-name="Trazado 991673" d="M200.978,81.965l4.839,4.839a6.711,6.711,0,0,1,1.966,4.746v.75a3.53,3.53,0,0,0-3.53-3.53H201.13a2.118,2.118,0,0,1-2.118-2.118V83.529a3.53,3.53,0,0,0-3.53-3.53h.75A6.712,6.712,0,0,1,200.978,81.965Z" transform="translate(-168.693 -69.035)" fill="#f2fbff"/>
      <g id="Grupo_1176824" data-name="Grupo 1176824" transform="translate(29.292 25.285)">
        <path id="Trazado_991674" data-name="Trazado 991674" d="M214.766,188.748a1.028,1.028,0,0,1-1.028-1.028v-2.193a1.028,1.028,0,1,1,2.056,0v2.193A1.028,1.028,0,0,1,214.766,188.748Z" transform="translate(-213.738 -184.5)" fill="#fe7d43"/>
      </g>
      <g id="Grupo_1176826" data-name="Grupo 1176826" transform="translate(24.907 18.707)">
        <g id="Grupo_1176825" data-name="Grupo 1176825">
          <path id="Trazado_991675" data-name="Trazado 991675" d="M182.766,147.327a1.028,1.028,0,0,1-1.028-1.028v-8.771a1.028,1.028,0,0,1,2.056,0V146.3A1.028,1.028,0,0,1,182.766,147.327Z" transform="translate(-181.738 -136.5)" fill="#80d261"/>
        </g>
      </g>
      <g id="Grupo_1176828" data-name="Grupo 1176828" transform="translate(33.678 23.092)">
        <g id="Grupo_1176827" data-name="Grupo 1176827">
          <path id="Trazado_991676" data-name="Trazado 991676" d="M246.766,174.941a1.028,1.028,0,0,1-1.028-1.028v-4.385a1.028,1.028,0,1,1,2.056,0v4.385A1.028,1.028,0,0,1,246.766,174.941Z" transform="translate(-245.738 -168.5)" fill="#ffc344"/>
        </g>
      </g>
    </g>
  </g>
</svg>
