<svg xmlns="http://www.w3.org/2000/svg" width="77.333" height="72.723" viewBox="0 0 77.333 72.723">
  <g id="Grupo_1177499" data-name="Grupo 1177499" transform="translate(-1193.5 -445.277)">
    <g id="Grupo_1176874" data-name="Grupo 1176874">
      <circle id="Elipse_13620" data-name="Elipse 13620" cx="32.5" cy="32.5" r="32.5" transform="translate(1199.833 452)" fill="#5f2bd6"/>
      <g id="Elipse_13638" data-name="Elipse 13638" transform="translate(1205.833 453)" fill="none" stroke="#210f4b" stroke-width="1">
        <circle cx="32.5" cy="32.5" r="32.5" stroke="none"/>
        <circle cx="32.5" cy="32.5" r="32" fill="none"/>
      </g>
    </g>
    <g id="Grupo_1176878" data-name="Grupo 1176878" transform="translate(1184.756 445.277)">
      <g id="Grupo_1176875" data-name="Grupo 1176875" transform="translate(8.744 10.626)">
        <path id="Trazado_991713" data-name="Trazado 991713" d="M45.006,196.333l-.727-.121H12.773l-.913.121a3.116,3.116,0,0,0-3.116,3.116v7a3.116,3.116,0,0,0,3.116,3.116l.863.121h31.52l.762-.121a3.116,3.116,0,0,0,3.116-3.116v-7A3.116,3.116,0,0,0,45.006,196.333Z" transform="translate(-8.744 -183.097)" fill="#a2aee6"/>
        <path id="Trazado_991714" data-name="Trazado 991714" d="M45.006,101.055H11.86a3.116,3.116,0,0,1-3.116-3.116v-7a3.116,3.116,0,0,1,3.116-3.116H45.006a3.116,3.116,0,0,1,3.116,3.116v7A3.116,3.116,0,0,1,45.006,101.055Z" transform="translate(-8.744 -87.819)" fill="#6c7fd8"/>
        <path id="Trazado_991715" data-name="Trazado 991715" d="M45.006,87.82H43.448V96.2a.549.549,0,0,1-.549.549H8.744V97.94a3.116,3.116,0,0,0,3.116,3.116H45.006a3.116,3.116,0,0,0,3.116-3.116v-7a3.116,3.116,0,0,0-3.116-3.116Z" transform="translate(-8.744 -87.82)" fill="#4f66d0"/>
        <path id="Trazado_991716" data-name="Trazado 991716" d="M185.009,123.677l-.11-.241h-4.617l-.11.226v4.191l.11.2H184.9l.11-.215Z" transform="translate(-159.43 -119.126)" fill="#ffc344"/>
        <path id="Trazado_991717" data-name="Trazado 991717" d="M46.84,127.505v-3.519a.549.549,0,0,1,.549-.549h3.519a.549.549,0,0,1,.549.549v3.519a.549.549,0,0,1-.549.549H47.389A.549.549,0,0,1,46.84,127.505Z" transform="translate(-42.231 -119.127)" fill="#5de1c4"/>
        <path id="Trazado_991718" data-name="Trazado 991718" d="M143.469,123.436h4.068v4.617h-4.068a.549.549,0,0,1-.549-.549v-3.519A.549.549,0,0,1,143.469,123.436Z" transform="translate(-126.685 -119.126)" fill="#ffe177"/>
        <path id="Trazado_991719" data-name="Trazado 991719" d="M219.239,123.436v4.617h8.685a.549.549,0,0,0,.549-.549v-3.519a.549.549,0,0,0-.549-.549h-8.685Z" transform="translate(-193.77 -119.126)" fill="#feb237"/>
        <path id="Trazado_991720" data-name="Trazado 991720" d="M187.787,232.828h-7.506l-.11.21v4.191l.11.217h3.528A19.221,19.221,0,0,1,187.787,232.828Z" transform="translate(-159.43 -215.282)" fill="#ffc344"/>
        <path id="Trazado_991721" data-name="Trazado 991721" d="M46.84,236.9v-3.519a.549.549,0,0,1,.549-.549h3.519a.549.549,0,0,1,.549.549V236.9a.549.549,0,0,1-.549.549H47.389A.549.549,0,0,1,46.84,236.9Z" transform="translate(-42.231 -215.283)" fill="#5de1c4"/>
        <path id="Trazado_991722" data-name="Trazado 991722" d="M143.469,232.828h4.068v4.617h-4.068a.549.549,0,0,1-.549-.549v-3.519A.549.549,0,0,1,143.469,232.828Z" transform="translate(-126.685 -215.282)" fill="#ffe177"/>
        <path id="Trazado_991723" data-name="Trazado 991723" d="M45.006,319.839H11.86a3.116,3.116,0,0,1-3.116-3.116v-7A3.116,3.116,0,0,1,11.86,306.6H45.006a3.116,3.116,0,0,1,3.116,3.116v7A3.116,3.116,0,0,1,45.006,319.839Z" transform="translate(-8.744 -280.131)" fill="#6c7fd8"/>
        <path id="Trazado_991724" data-name="Trazado 991724" d="M45.006,306.6H43.448v7.68a1.246,1.246,0,0,1-1.247,1.246H8.744v1.193a3.116,3.116,0,0,0,3.116,3.116H45.006a3.116,3.116,0,0,0,3.116-3.116v-7A3.116,3.116,0,0,0,45.006,306.6Z" transform="translate(-8.744 -280.132)" fill="#4f66d0"/>
        <path id="Trazado_991725" data-name="Trazado 991725" d="M45.006,197.212H43.448v7.68a1.246,1.246,0,0,1-1.247,1.247H8.744v1.193a3.116,3.116,0,0,0,3.116,3.116H45.006a3.116,3.116,0,0,0,3.116-3.116v-7A3.116,3.116,0,0,0,45.006,197.212Z" transform="translate(-8.744 -183.976)" fill="#8795de"/>
        <path id="Trazado_991726" data-name="Trazado 991726" d="M46.84,346.289V342.77a.549.549,0,0,1,.549-.549h3.519a.549.549,0,0,1,.549.549v3.519a.549.549,0,0,1-.549.549H47.389A.549.549,0,0,1,46.84,346.289Z" transform="translate(-42.231 -311.439)" fill="#5de1c4"/>
        <path id="Trazado_991727" data-name="Trazado 991727" d="M148.249,343.567c0-.453.017-.9.048-1.347h-4.828a.549.549,0,0,0-.549.549v3.519a.549.549,0,0,0,.549.549h5.061A19.118,19.118,0,0,1,148.249,343.567Z" transform="translate(-126.685 -311.439)" fill="#ffe177"/>
      </g>
      <g id="Grupo_1176877" data-name="Grupo 1176877" transform="translate(30.186 0)">
        <path id="Trazado_991728" data-name="Trazado 991728" d="M353.533,7.085h2.458V24.137a18.973,18.973,0,0,1,6.417,2.742V7.085h2.459a.683.683,0,0,0,.485-1.163L359.684.2a.683.683,0,0,0-.97,0l-5.666,5.72a.683.683,0,0,0,.485,1.163Z" transform="translate(-332.656 0)" fill="#5de1c4"/>
        <path id="Trazado_991729" data-name="Trazado 991729" d="M388.177,6.759l-5.667-5.72A.688.688,0,0,0,382.4.952V21.217a1.246,1.246,0,0,1-1.247,1.247h-2.341v2.51a18.973,18.973,0,0,1,6.417,2.742V7.922h2.459a.683.683,0,0,0,.485-1.163Z" transform="translate(-355.481 -0.837)" fill="#0ed2b3"/>
        <path id="Trazado_991730" data-name="Trazado 991730" d="M205.156,194.7a19.2,19.2,0,1,0,19.2,19.2A19.2,19.2,0,0,0,205.156,194.7Z" transform="translate(-185.96 -171.146)" fill="#01d0fb"/>
        <path id="Trazado_991731" data-name="Trazado 991731" d="M241.136,210.752a19.2,19.2,0,0,1-23.822,28.712,19.2,19.2,0,1,0,23.822-28.712Z" transform="translate(-213.52 -185.252)" fill="#01c0fa"/>
        <path id="Trazado_991732" data-name="Trazado 991732" d="M248.768,276.734a.507.507,0,0,1-.5-.482,10.53,10.53,0,0,0-21.026,0,.507.507,0,0,1-.5.482h-3.692c0,.04,0,.08,0,.121a14.708,14.708,0,1,0,29.417,0c0-.04,0-.081,0-.121Z" transform="translate(-218.558 -234.101)" fill="#fff"/>
        <path id="Trazado_991733" data-name="Trazado 991733" d="M297.445,234.05l-.021-.2a14.718,14.718,0,0,0-15.012,0l-.022.2,2.039,3.436.178.063a10.407,10.407,0,0,1,10.623,0l.179-.064Z" transform="translate(-270.722 -203.744)" fill="#ffc344"/>
        <path id="Trazado_991734" data-name="Trazado 991734" d="M311.53,352.353a19.206,19.206,0,0,1-17.477,13.5,14.714,14.714,0,0,0,20.825-13.379c0-.041,0-.08,0-.121Z" transform="translate(-280.974 -309.72)" fill="#efedef"/>
        <path id="Trazado_991735" data-name="Trazado 991735" d="M390.7,248.8l-2.195,3.7a10.405,10.405,0,0,1,5.081,8.355.626.626,0,0,0,.622.6H397.9A14.7,14.7,0,0,0,390.7,248.8Z" transform="translate(-363.998 -218.695)" fill="#5de1c4"/>
        <path id="Trazado_991736" data-name="Trazado 991736" d="M441.572,291.87a14.636,14.636,0,0,0-2.68-8.463,19.285,19.285,0,0,1-.706,8.463Z" transform="translate(-407.668 -249.116)" fill="#0ed2b3"/>
        <path id="Trazado_991737" data-name="Trazado 991737" d="M230.249,248.8a14.7,14.7,0,0,0-7.2,12.65h3.694a.626.626,0,0,0,.622-.6,10.4,10.4,0,0,1,5.081-8.355Z" transform="translate(-218.56 -218.695)" fill="#fe73c5"/>
        <path id="Trazado_991738" data-name="Trazado 991738" d="M294.112,295.662a6.981,6.981,0,0,0-6.948,6.3.622.622,0,0,0,.622.676h12.653a.622.622,0,0,0,.622-.676A6.981,6.981,0,0,0,294.112,295.662Z" transform="translate(-274.917 -259.888)" fill="#c8effe"/>
        <g id="Grupo_1176876" data-name="Grupo 1176876" transform="translate(10.884 49.251)">
          <path id="Trazado_991739" data-name="Trazado 991739" d="M284.228,411.919a11.343,11.343,0,0,1-8.045-3.327.907.907,0,0,1,1.283-1.283,9.574,9.574,0,0,0,13.524,0,.907.907,0,0,1,1.283,1.283A11.342,11.342,0,0,1,284.228,411.919Z" transform="translate(-275.917 -407.043)" fill="#99e6fc"/>
        </g>
        <path id="Trazado_991740" data-name="Trazado 991740" d="M338.014,261.148a2.578,2.578,0,0,1,.907.167v-9a.907.907,0,0,0-1.815,0v9a2.578,2.578,0,0,1,.907-.167Z" transform="translate(-318.819 -220.989)" fill="#fe4fb7"/>
        <circle id="Elipse_13639" data-name="Elipse 13639" cx="2.715" cy="2.715" r="2.715" transform="translate(16.48 40.039)" fill="#fe73c5"/>
      </g>
    </g>
  </g>
</svg>
