<svg xmlns="http://www.w3.org/2000/svg" width="101.333" height="94" viewBox="0 0 101.333 94">
  <g id="Grupo_1177500" data-name="Grupo 1177500" transform="translate(-842.5 -452)">
    <g id="Grupo_1176873" data-name="Grupo 1176873">
      <circle id="Elipse_13619" data-name="Elipse 13619" cx="44" cy="44" r="44" transform="translate(855.833 452)" fill="#5f2bd6"/>
      <g id="Elipse_13637" data-name="Elipse 13637" transform="translate(851.833 458)" fill="none" stroke="#210f4b" stroke-width="1">
        <circle cx="44" cy="44" r="44" stroke="none"/>
        <circle cx="44" cy="44" r="43.5" fill="none"/>
      </g>
    </g>
    <g id="Grupo_1176872" data-name="Grupo 1176872" transform="translate(842.5 458.501)">
      <g id="Grupo_1176832" data-name="Grupo 1176832" transform="translate(16.651 14.371)">
        <g id="Grupo_1176831" data-name="Grupo 1176831">
          <path id="Trazado_991677" data-name="Trazado 991677" d="M163.332,68h-60.2v56.749H159.75a4.158,4.158,0,0,0,4.158-4.158V68.156Z" transform="translate(-103.129 -67.995)" fill="#efedef"/>
        </g>
      </g>
      <g id="Grupo_1176853" data-name="Grupo 1176853" transform="translate(0 4.046)">
        <g id="Grupo_1176852" data-name="Grupo 1176852" transform="translate(0 0)">
          <g id="Grupo_1176839" data-name="Grupo 1176839">
            <g id="Grupo_1176833" data-name="Grupo 1176833" transform="translate(28.981 27.397)">
              <path id="Trazado_991678" data-name="Trazado 991678" d="M210.388,173.73h-29.68a1.211,1.211,0,1,0,0,2.422h29.68V173.73Z" transform="translate(-179.497 -173.73)" fill="#8795de"/>
              <path id="Trazado_991679" data-name="Trazado 991679" d="M187.965,342.19h-7.257a1.211,1.211,0,1,0,0,2.422H188.4A16.656,16.656,0,0,1,187.965,342.19Z" transform="translate(-179.497 -314.991)" fill="#8795de"/>
              <path id="Trazado_991680" data-name="Trazado 991680" d="M189.547,286.036h-8.84a1.211,1.211,0,1,0,0,2.422h7.89A16.663,16.663,0,0,1,189.547,286.036Z" transform="translate(-179.497 -267.903)" fill="#8795de"/>
              <path id="Trazado_991681" data-name="Trazado 991681" d="M200.952,229.883H180.708a1.211,1.211,0,1,0,0,2.422h14.625A16.7,16.7,0,0,1,200.952,229.883Z" transform="translate(-179.497 -220.817)" fill="#8795de"/>
            </g>
            <g id="Grupo_1176834" data-name="Grupo 1176834" transform="translate(16.651 10.487)">
              <path id="Trazado_991682" data-name="Trazado 991682" d="M157.461,68.995v43.844a6.267,6.267,0,0,1-6.267,6.267H103.129v6.477H159.75a4.158,4.158,0,0,0,4.158-4.158V68.995Z" transform="translate(-103.129 -68.995)" fill="#e5e1e5"/>
            </g>
            <path id="Trazado_991683" data-name="Trazado 991683" d="M1.529,67.995,0,68.156v52.429a4.158,4.158,0,0,0,4.158,4.158H16.813V67.995Z" transform="translate(0 -57.67)" fill="#cbc4cc"/>
            <g id="Grupo_1176835" data-name="Grupo 1176835" transform="translate(0 60.597)">
              <path id="Trazado_991684" data-name="Trazado 991684" d="M0,379.356v2.319a4.158,4.158,0,0,0,4.158,4.158H16.813v-6.477Z" transform="translate(0 -379.356)" fill="#b5adb6"/>
            </g>
            <g id="Grupo_1176836" data-name="Grupo 1176836" transform="translate(0)">
              <path id="Trazado_991685" data-name="Trazado 991685" d="M73.272,4.046H4.158A4.158,4.158,0,0,0,0,8.2v6.328H77.43V8.2a4.158,4.158,0,0,0-4.158-4.158Z" transform="translate(0 -4.046)" fill="#8795de"/>
            </g>
            <g id="Grupo_1176837" data-name="Grupo 1176837" transform="translate(65.446)">
              <path id="Trazado_991686" data-name="Trazado 991686" d="M413.168,4.046h-7.826V14.533h11.984V8.2a4.158,4.158,0,0,0-4.158-4.158Z" transform="translate(-405.342 -4.046)" fill="#6c7fd8"/>
            </g>
            <g id="Grupo_1176838" data-name="Grupo 1176838" transform="translate(70.983)">
              <path id="Trazado_991687" data-name="Trazado 991687" d="M441.925,4.046h-2.288V14.533h6.447V8.2a4.158,4.158,0,0,0-4.158-4.158Z" transform="translate(-439.637 -4.046)" fill="#4f66d0"/>
            </g>
          </g>
          <g id="Grupo_1176851" data-name="Grupo 1176851" transform="translate(37.196 24.708)">
            <g id="Grupo_1176845" data-name="Grupo 1176845" transform="translate(0 11.181)">
              <g id="Grupo_1176840" data-name="Grupo 1176840" transform="translate(25.836 25.836)">
                <path id="Trazado_991688" data-name="Trazado 991688" d="M393.368,389.321a16.776,16.776,0,0,1-2.979,2.371l13.177,13.177a3.783,3.783,0,1,0,5.35-5.35l-13.177-13.177A16.777,16.777,0,0,1,393.368,389.321Z" transform="translate(-390.389 -386.342)" fill="#a79ba7"/>
              </g>
              <g id="Grupo_1176841" data-name="Grupo 1176841">
                <circle id="Elipse_13636" data-name="Elipse 13636" cx="16.945" cy="16.945" r="16.945" fill="#01d0fb"/>
              </g>
              <g id="Grupo_1176842" data-name="Grupo 1176842" transform="translate(1.59 1.756)">
                <path id="Trazado_991689" data-name="Trazado 991689" d="M263.092,237.2a16.949,16.949,0,0,1-22.871,22.361A16.946,16.946,0,1,0,263.092,237.2Z" transform="translate(-240.221 -237.2)" fill="#01c0fa"/>
              </g>
              <path id="Trazado_991690" data-name="Trazado 991690" d="M279.244,264.4a10.8,10.8,0,0,0-10.415,13.645l.563.161h7.476a1.5,1.5,0,0,1,1.5,1.5v6.008l.161.253c.236.015.473.026.713.026a10.8,10.8,0,0,0,0-21.595Z" transform="translate(-262.3 -258.253)" fill="#c8effe"/>
              <path id="Trazado_991691" data-name="Trazado 991691" d="M340.6,294.191a16.957,16.957,0,0,1-9.7,13.346v3.414c.236.015.473.025.713.025a10.8,10.8,0,0,0,8.985-16.785Z" transform="translate(-314.674 -283.234)" fill="#99e6fc"/>
              <g id="Grupo_1176843" data-name="Grupo 1176843" transform="translate(6.53 19.792)">
                <path id="Trazado_991692" data-name="Trazado 991692" d="M278.854,348.911h-8.039a10.8,10.8,0,0,0,9.7,7.924v-6.26A1.663,1.663,0,0,0,278.854,348.911Z" transform="translate(-270.815 -348.911)" fill="#fe73c5"/>
              </g>
              <g id="Grupo_1176844" data-name="Grupo 1176844" transform="translate(10.76 24.305)">
                <path id="Trazado_991693" data-name="Trazado 991693" d="M297.014,378.347a10.737,10.737,0,0,0,5.472,1.924V376.86A16.835,16.835,0,0,1,297.014,378.347Z" transform="translate(-297.014 -376.86)" fill="#fe4fb7"/>
              </g>
            </g>
            <g id="Grupo_1176846" data-name="Grupo 1176846" transform="translate(18.071 13.126)">
              <path id="Trazado_991694" data-name="Trazado 991694" d="M354.011,251.748h-10.05a1.663,1.663,0,0,1-1.663-1.663v-10.05a1.663,1.663,0,0,1,1.663-1.663h10.05a1.663,1.663,0,0,1,1.663,1.663v10.05A1.663,1.663,0,0,1,354.011,251.748Z" transform="translate(-342.298 -238.371)" fill="#ffd15b"/>
            </g>
            <g id="Grupo_1176847" data-name="Grupo 1176847" transform="translate(24.549 13.126)">
              <path id="Trazado_991695" data-name="Trazado 991695" d="M387.656,238.371h-5.235a16.989,16.989,0,0,1,.253,13.377h4.982a1.663,1.663,0,0,0,1.663-1.663v-10.05a1.663,1.663,0,0,0-1.663-1.663Z" transform="translate(-382.421 -238.371)" fill="#ffc344"/>
            </g>
            <g id="Grupo_1176848" data-name="Grupo 1176848" transform="translate(36.335 3.904)">
              <path id="Trazado_991696" data-name="Trazado 991696" d="M461.549,189.058h-4.473a1.663,1.663,0,0,1-1.663-1.663v-4.473a1.663,1.663,0,0,1,1.663-1.663h4.473a1.663,1.663,0,0,1,1.663,1.663v4.473A1.663,1.663,0,0,1,461.549,189.058Z" transform="translate(-455.413 -181.259)" fill="#fe4fb7"/>
            </g>
            <g id="Grupo_1176849" data-name="Grupo 1176849" transform="translate(22.515 0)">
              <path id="Trazado_991697" data-name="Trazado 991697" d="M375.956,164.876h-4.473a1.663,1.663,0,0,1-1.663-1.663V158.74a1.663,1.663,0,0,1,1.663-1.663h4.473a1.663,1.663,0,0,1,1.663,1.663v4.473A1.663,1.663,0,0,1,375.956,164.876Z" transform="translate(-369.82 -157.077)" fill="#5de1c4"/>
            </g>
            <g id="Grupo_1176850" data-name="Grupo 1176850" transform="translate(22.515)">
              <path id="Trazado_991698" data-name="Trazado 991698" d="M375.955,157.077h-1.236v3.155a1.663,1.663,0,0,1-1.663,1.663h-3.237v1.317a1.663,1.663,0,0,0,1.663,1.663h4.473a1.663,1.663,0,0,0,1.663-1.663V158.74A1.663,1.663,0,0,0,375.955,157.077Z" transform="translate(-369.819 -157.077)" fill="#0ed2b3"/>
            </g>
          </g>
        </g>
      </g>
      <g id="Grupo_1176871" data-name="Grupo 1176871" transform="translate(4.995 8.078)">
        <g id="Grupo_1176854" data-name="Grupo 1176854" transform="translate(23.987 14.298)">
          <path id="Trazado_991699" data-name="Trazado 991699" d="M220.039,120H180.708a1.211,1.211,0,1,1,0-2.422h39.331a1.211,1.211,0,1,1,0,2.422Z" transform="translate(-179.497 -117.576)" fill="#8795de"/>
        </g>
        <g id="Grupo_1176860" data-name="Grupo 1176860" transform="translate(16.593 14.298)">
          <g id="Grupo_1176855" data-name="Grupo 1176855">
            <path id="Trazado_991700" data-name="Trazado 991700" d="M136.673,120h-1.76a1.211,1.211,0,0,1,0-2.422h1.76a1.211,1.211,0,0,1,0,2.422Z" transform="translate(-133.702 -117.576)" fill="#8795de"/>
          </g>
          <g id="Grupo_1176856" data-name="Grupo 1176856" transform="translate(0 9.067)">
            <path id="Trazado_991701" data-name="Trazado 991701" d="M136.673,176.152h-1.76a1.211,1.211,0,0,1,0-2.422h1.76a1.211,1.211,0,0,1,0,2.422Z" transform="translate(-133.702 -173.73)" fill="#8795de"/>
          </g>
          <g id="Grupo_1176857" data-name="Grupo 1176857" transform="translate(0 18.133)">
            <path id="Trazado_991702" data-name="Trazado 991702" d="M136.673,232.3h-1.76a1.211,1.211,0,0,1,0-2.422h1.76a1.211,1.211,0,0,1,0,2.422Z" transform="translate(-133.702 -229.883)" fill="#8795de"/>
          </g>
          <g id="Grupo_1176858" data-name="Grupo 1176858" transform="translate(0 27.2)">
            <path id="Trazado_991703" data-name="Trazado 991703" d="M136.673,288.459h-1.76a1.211,1.211,0,1,1,0-2.422h1.76a1.211,1.211,0,1,1,0,2.422Z" transform="translate(-133.702 -286.037)" fill="#8795de"/>
          </g>
          <g id="Grupo_1176859" data-name="Grupo 1176859" transform="translate(0 36.266)">
            <path id="Trazado_991704" data-name="Trazado 991704" d="M136.673,344.612h-1.76a1.211,1.211,0,0,1,0-2.422h1.76a1.211,1.211,0,0,1,0,2.422Z" transform="translate(-133.702 -342.19)" fill="#8795de"/>
          </g>
        </g>
        <g id="Grupo_1176866" data-name="Grupo 1176866" transform="translate(0 14.298)">
          <g id="Grupo_1176861" data-name="Grupo 1176861">
            <path id="Trazado_991705" data-name="Trazado 991705" d="M36.547,120h-4.4a1.211,1.211,0,1,1,0-2.422h4.4a1.211,1.211,0,1,1,0,2.422Z" transform="translate(-30.935 -117.576)" fill="#fff"/>
          </g>
          <g id="Grupo_1176862" data-name="Grupo 1176862" transform="translate(0 9.067)">
            <path id="Trazado_991706" data-name="Trazado 991706" d="M36.547,176.152h-4.4a1.211,1.211,0,1,1,0-2.422h4.4a1.211,1.211,0,1,1,0,2.422Z" transform="translate(-30.935 -173.73)" fill="#fff"/>
          </g>
          <g id="Grupo_1176863" data-name="Grupo 1176863" transform="translate(0 18.133)">
            <path id="Trazado_991707" data-name="Trazado 991707" d="M36.547,232.3h-4.4a1.211,1.211,0,1,1,0-2.422h4.4a1.211,1.211,0,1,1,0,2.422Z" transform="translate(-30.935 -229.883)" fill="#fff"/>
          </g>
          <g id="Grupo_1176864" data-name="Grupo 1176864" transform="translate(0 27.2)">
            <path id="Trazado_991708" data-name="Trazado 991708" d="M36.547,288.459h-4.4a1.211,1.211,0,1,1,0-2.422h4.4a1.211,1.211,0,1,1,0,2.422Z" transform="translate(-30.935 -286.037)" fill="#fff"/>
          </g>
          <g id="Grupo_1176865" data-name="Grupo 1176865" transform="translate(0 36.266)">
            <path id="Trazado_991709" data-name="Trazado 991709" d="M36.547,344.612h-4.4a1.211,1.211,0,1,1,0-2.422h4.4a1.211,1.211,0,1,1,0,2.422Z" transform="translate(-30.935 -342.19)" fill="#fff"/>
          </g>
        </g>
        <g id="Grupo_1176870" data-name="Grupo 1176870" transform="translate(0.199 0)">
          <g id="Grupo_1176867" data-name="Grupo 1176867">
            <path id="Trazado_991710" data-name="Trazado 991710" d="M33.688,31.443h-.31a1.211,1.211,0,1,1,0-2.422h.31a1.211,1.211,0,0,1,0,2.422Z" transform="translate(-32.167 -29.021)" fill="#fff"/>
          </g>
          <g id="Grupo_1176868" data-name="Grupo 1176868" transform="translate(5.655)">
            <path id="Trazado_991711" data-name="Trazado 991711" d="M68.71,31.443H68.4a1.211,1.211,0,1,1,0-2.422h.31a1.211,1.211,0,1,1,0,2.422Z" transform="translate(-67.189 -29.021)" fill="#fff"/>
          </g>
          <g id="Grupo_1176869" data-name="Grupo 1176869" transform="translate(11.309)">
            <path id="Trazado_991712" data-name="Trazado 991712" d="M103.733,31.443h-.31a1.211,1.211,0,1,1,0-2.422h.31a1.211,1.211,0,0,1,0,2.422Z" transform="translate(-102.212 -29.021)" fill="#fff"/>
          </g>
        </g>
      </g>
    </g>
  </g>
</svg>
